<svg width="428" height="653" viewBox="0 0 428 653" fill="none" xmlns="http://www.w3.org/2000/svg">
<path fill-rule="evenodd" clip-rule="evenodd" d="M-156.437 141.598C-117.419 156.255 -13.081 186.576 94.2479 134.825C201.577 83.0733 262.097 14.4719 341.968 32.1485C421.838 49.825 511.678 102.216 540.948 194.602C570.218 286.987 638.8 880.223 638.8 880.223L-32.7491 837.097C-32.7491 837.097 -195.455 126.942 -156.437 141.598Z" fill="url(#paint0_linear_2618_1098)"/>
<path opacity="0.137738" fill-rule="evenodd" clip-rule="evenodd" d="M-92.7593 195.773C-49.0957 240.819 -10.4274 285.8 105.121 289.676C220.67 293.551 269.047 246.338 321.545 239.26C374.042 232.181 461.344 230.849 534.74 347.295C608.137 463.74 619.377 782.516 619.377 782.516L35.3828 861.566C35.3828 861.566 -136.423 150.726 -92.7593 195.773Z" fill="white"/>
<path opacity="0.137738" fill-rule="evenodd" clip-rule="evenodd" d="M-54.9158 235.532C-39.9816 278.882 9.69256 371.856 84.3562 410.475C159.02 449.094 226.264 458.936 325.471 454.199C424.677 449.462 511.154 462.571 572.442 566.177C633.729 669.782 617.304 795.71 617.304 795.71L199.782 869.57L45.2546 830.24C45.2546 830.24 -69.8499 192.183 -54.9158 235.532Z" fill="white"/>
<path opacity="0.137738" fill-rule="evenodd" clip-rule="evenodd" d="M-24.6475 433.866C33.7404 515.033 96.2636 570.925 143.831 584.353C191.398 597.782 263.068 634.267 281.828 683.654C300.587 733.041 317.098 816.349 292.172 849.275C267.246 882.201 38.3073 898.953 38.3073 898.953C38.3073 898.953 -83.0354 352.699 -24.6475 433.866Z" fill="white"/>

<defs>
<linearGradient id="paint0_linear_2618_1098" x1="-56.9449" y1="974.4" x2="-176" y2="94.8648" gradientUnits="userSpaceOnUse">
<stop stop-color="#603605"/>
<stop offset="1" stop-color="#D63064"/>
</linearGradient>
</defs>
</svg>
